# xmcd
#
# Track frame offsets:
#	150
#	10680
#	31735
#	47322
#	64772
#	80957
#	94365
#	114775
#	137247
#	152352
#	172322
#	196872
#	215075
#	246042
#	257342
#	272667
#	284487
#	300875
#
# Disc length: 4227 seconds
#
# Revision: 4
# Processed by: cddbd v1.4PL0 Copyright (c) Steve Scherf et al.
# Submitted via: audiograbber 1.81.03
#
DISCID=ee108112
DTITLE=Various Artist - Earwig 16th Anniversary Sampler
DYEAR=1995
DGENRE=Blues
TTITLE0=Frank Frost - Jelly Rolly King
TTITLE1=Arthur Lee Stephenson - Lightnin' Struck The Poor House
TTITLE2=J.w. Brewer - Hair Like A Horse's Mane
TTITLE3=Jack Johnson - Oil Man
TTITLE4=Albert Luandrew - Be Careful How You Vote
TTITLE5=Eurreal Montgomery - I'm Gonna Build My Bed On The Bottom Of The Deep B
TTITLE5=lue Sea
TTITLE6=Louis Myers - Bottom Of The Harp
TTITLE7=Jimmy Dawkins - Wes Cide Bluze
TTITLE8=David Edwards - Eyes Full Of Tears
TTITLE9=Lessie Davenport - When The Blues Hit You
TTITLE10=Alfonzo Primer, James "Son" Thomas - Cairo
TTITLE11=Robert P. Ferguson - Shake Your Apple Tree
TTITLE12=Aron Burton - Past, Present And Future
TTITLE13=Eddie Lee Watson - Stick Candy
TTITLE14=William Henderson - Better Know What You Runnin' From
TTITLE15=Willie Anderson - Come Here Mama
TTITLE16=Leon Brooks - Young Girl
TTITLE17=Iverson Minter - Sittin' Here Wonderin'
EXTD=
EXTT0=Frank Frost\n
EXTT1=Arthur Lee Stephenson\n
EXTT2=J. W. Brewer\n
EXTT3=Jack Johnson\n
EXTT4=Albert Luandrew\n
EXTT5=Eurreal Montgomery\n
EXTT6=Louis Myers\n
EXTT7=Jimmy Dawkins\n
EXTT8=David Edwards\n
EXTT9=Lessie Davenport\n
EXTT10=Alfonzo Primer, James Son Thomas\n
EXTT11=Robert P. Ferguson\n
EXTT12=Aron Burton\n
EXTT13=Eddie Lee Watson\n
EXTT14=William Henderson\n
EXTT15=Willie Anderson\n
EXTT16=Leon Brooks\n
EXTT17=Iverson Minter \n
PLAYORDER=
